<?xml version="1.0" encoding="UTF-8" standalone="no"?>
<!DOCTYPE svg PUBLIC "-//W3C//DTD SVG 1.1//EN" "http://www.w3.org/Graphics/SVG/1.1/DTD/svg11.dtd">
<svg class="site-nav__logo-svg" width="100%" height="100%" viewBox="0 0 1061 465" version="1.1" xmlns="http://www.w3.org/2000/svg" xmlns:xlink="http://www.w3.org/1999/xlink" xml:space="preserve" xmlns:serif="http://www.serif.com/" style="fill-rule:evenodd;clip-rule:evenodd;stroke-linejoin:round;stroke-miterlimit:2;">
    <g id="Artboard1" transform="matrix(1,0,0,1,-2,-281)">
        <rect x="2" y="281" width="1061" height="465" style="fill:none;"/>
        <g id="Background" transform="matrix(1.425495,0,0,1.425495,-218.023367,-218.112092)">
            <path d="M645.972,516.493C645.678,483.79 644.599,424.586 644.815,418.513C644.927,415.382 648.222,415.803 654.492,416.567C681.952,419.911 725.315,419.236 755.457,449.542C779.272,473.486 781.772,508.138 775.608,530.529C759.289,589.812 694.134,596.943 687.468,598.347C685.798,598.699 675.271,600.916 666.442,602.018C648.634,604.239 648.073,605.089 647.329,603.623C646.71,602.405 646.268,525.808 645.972,516.493ZM741.953,502.461C741.625,499.847 740.71,482.024 727.566,469.433C713.53,455.988 696.101,454.565 683.516,453.173C679.881,452.771 680.963,457.146 681.04,461.513C681.782,503.556 681.959,563.468 682.708,564.317C683.901,565.668 697.247,562.541 698.452,562.277C730.711,555.208 744.094,530.758 741.953,502.461Z"/>
            <path d="M261.849,501.433C260.932,495.479 260.888,495.498 261.054,489.481C261.929,457.667 297.802,443.438 310.613,439.896C344.399,430.557 365.562,442.013 369.676,444.132C380.435,449.673 380.41,451.154 379.053,453.204C368.468,469.192 368.749,469.343 367.758,470.681C363.621,476.263 363.622,479.672 359.759,477.1C345.214,467.417 320.369,465.612 305.776,474.982C294.56,482.183 297.465,491.059 298.951,493.19C309.577,508.43 359.557,498.974 380.26,530.645C387.382,541.542 387.619,559.678 384.207,571.416C369.896,620.652 297.018,611.558 261.652,579.33C254.094,572.442 253.29,571.522 255.396,569.399C261.164,563.582 260.765,563.288 266.48,557.48C271.244,552.637 272.893,548.13 276.575,551.418C302.762,574.803 327.137,573.273 328.483,573.212C344.88,572.47 348.146,563.358 348.777,561.597C355.411,543.085 326.911,538.535 311.409,534.941C286.696,529.212 268.003,523.745 261.849,501.433Z"/>
            <path d="M522.953,461.493C522.777,449.57 522.975,449.538 522.594,448.463C522.351,447.778 521.013,446.191 519.59,444.43C513.51,436.911 515.258,423.299 516.858,419.651C522.173,407.529 534.349,409.108 536.498,409.096C555.921,408.989 560.831,408.87 566.341,415.625C571.601,422.074 574.129,441.127 561.275,448.069C558.357,449.644 558.378,450.036 558.476,453.501C559.356,484.486 557.903,493.063 560.392,493.836C562.049,494.351 614.246,492.017 615.457,492.596C616.435,493.063 616.462,497.099 616.465,497.5C616.547,509.717 617.469,524.128 616.269,525.234C615.146,526.268 562.955,527.611 561.357,528.01C558.54,528.714 560.024,530.159 560.239,573.501C560.262,578.053 561.797,577.387 564.183,578.96C574.257,585.603 574.902,610.137 562.583,615.664C560.374,616.655 554.996,619.068 532.491,618.875C523.347,618.797 517.706,611.1 516.972,604.448C514.725,584.084 523.457,582.718 524.385,579.467C524.977,577.394 523.183,495.732 522.953,461.493Z"/>
            <path d="M389.857,450.383C389.494,448.769 386.798,436.786 390.884,429.721C396.531,419.957 401.687,420.566 425.562,416.946C434.704,415.56 441.795,422.556 443.023,428.609C446.939,447.921 436.696,454.525 436.298,455.396C434.952,458.343 436.522,497.451 436.533,497.488C437.209,499.661 438.202,498.522 461.511,497.963C492.447,497.221 492.725,496.505 493.584,497.418C494.137,498.006 494.225,503.017 494.233,503.506C494.67,528.378 495.291,528.491 494.419,530.463C494.031,531.34 493.829,531.653 476.482,532.025C470.787,532.147 438.543,533.087 438.395,533.123C436.728,533.524 436.408,534.184 437,554.509C437.646,576.692 435.785,577.585 439.983,583.118C448.682,594.58 443.815,608.795 440.627,612.602C435.253,619.018 428.876,618.258 423.466,617.82C399.868,615.913 388.726,614.719 389.487,593.5C390.122,575.802 401.574,579.564 401.67,573.505C401.81,564.625 401.535,564.685 400.349,462.502C400.281,456.608 394.342,460.295 389.857,450.383Z"/>
            <path d="M238.246,502.427C237.7,503.695 237.738,503.71 237.657,503.797C237.261,504.221 237.093,503.837 236.728,504.228C235.06,498.525 231.35,463.345 246.747,436.639C284.827,370.592 381.193,384.801 432.536,373.653C473.952,364.661 477.264,350.322 479.162,352.713C480.039,353.817 471.219,367.545 467.107,372.142C434.019,409.137 352.622,413.397 315.618,424.894C292.097,432.203 276.976,440.488 264.198,452.162C244.973,469.726 238.968,492.77 238.246,502.427Z"/>
            <path d="M786.111,534.903C786.753,537.09 791.677,579.11 767.427,607.439C735.519,644.714 690.822,648.272 623.486,651.2C588.456,652.724 560.14,662.73 551.669,669.767C548.586,672.327 548.782,672.817 547.404,672.764C545.231,672.681 549.484,668.25 552.108,664.245C580.576,620.781 662.259,618.931 703.522,607.574C709.056,606.051 767.073,593.433 783.148,542.389C783.551,541.11 784.561,535.119 784.92,534.923C785.003,534.877 785.008,534.921 786.111,534.903Z"/>
            <path d="M236.555,554.072C226.548,545.496 219.448,540.711 193.447,544.169C184.171,545.402 172.999,551.362 164.738,536.374C158.551,525.148 163.254,500.265 184.497,499.397C189.194,499.205 213.643,501.638 223.46,489.447C226.259,485.972 224.958,492.117 224.839,498.508C224.579,512.519 225.668,527.327 233.991,547.293C234.28,547.986 234.597,548.671 234.987,549.312C237.228,553.01 237.415,553.005 237.239,553.422C237.117,553.712 236.678,553.782 236.555,554.072Z"/>
            <path d="M454.138,609.632C450.861,597.834 454.15,589.541 454.692,588.605C460.293,578.941 467.592,579.576 472.497,579.666C492.593,580.035 498.082,578.369 504.23,585.719C510.305,592.981 507.741,607.795 507.481,608.494C502.664,621.431 492.767,620.695 486.498,620.578C467.842,620.229 459.336,621.473 454.138,609.632Z"/>
            <path d="M452.08,432.508C452.085,432.184 452.141,428.467 452.141,428.467C453.148,415.851 463.981,413.223 465.583,412.834C469.476,411.89 489.421,410.903 489.513,410.902C507.552,410.645 507.807,429.461 506.672,436.524C503.961,453.392 486.804,451.764 483.517,451.918C470.777,452.515 464.477,454.632 458.655,450.278C450.944,444.513 452.136,434.098 452.08,432.508Z"/>
            <path d="M579.938,597.475C579.922,596.08 579.444,589.127 580.651,585.545C585.004,572.622 593.322,573.384 617.546,570.983C627.369,570.009 634.164,577.552 634.806,585.468C636.165,602.222 630.943,609.222 613.526,611.671C593.988,614.418 592.31,613.866 590.561,613.291C579.163,609.541 579.948,597.6 579.938,597.475Z"/>
            <path d="M578.995,422.614C584.556,406.899 596.449,410.486 606.529,411.075C609.599,411.254 630.06,409.888 632.666,426.476C635.99,447.639 621.602,450.651 619.411,451.109C616.743,451.668 591.776,450.96 588.581,449.323C576.798,443.284 578.03,431.608 578.995,422.614Z"/>
            <path d="M789.827,512.527C790.796,491.281 786.371,490.412 789.424,485.447C793.96,478.069 814.517,485.476 816.557,486.391C827.562,491.328 831.996,513.475 810.537,519.619C800.029,522.627 792.929,524.616 789.973,519.246C788.778,517.075 789.526,516.934 789.827,512.527Z"/>
            <path d="M830.689,512.589C831.116,511.49 831.629,510.426 832.055,509.327C836.421,498.07 829.495,488.755 828.927,487.334C827.665,484.179 832.863,476.516 835.498,476.407C836.569,476.362 843.88,478.714 850.335,481.844C863.522,488.238 874.085,511.89 837.393,523.126C834.003,524.164 833.719,521.471 831.015,517.909C829.218,515.541 829.683,515.284 830.689,512.589Z"/>
            <path d="M792.861,456.456C792.395,451.556 791.568,449.695 796.491,449.344C801.932,448.956 812.644,453.114 814.408,453.764C829.968,459.491 827.516,472.77 825.346,476.409C822.344,481.444 820.694,480.085 818.661,479.156C807.898,474.238 798.137,474.746 795.788,473.082C790.836,469.571 793.27,466.399 792.861,456.456Z"/>
            <path d="M797.328,533.396C797.85,532.81 798.355,531.231 802.451,530.261C816.694,526.889 818.308,524.644 822.668,522.983C826.484,521.529 834.533,532.535 824.076,545.106C820.72,549.14 799.029,558.32 797.298,556.743C796.033,555.591 796.755,555.321 796.812,551.506C796.972,540.866 795.547,538.62 797.328,533.396Z"/>
            <path d="M762.558,436.156C767.039,437.041 787.164,439.154 784.616,461.511C784.308,464.213 783.338,466.184 782.523,467.525C781.388,469.391 780.038,466.483 779.941,466.275C772.687,450.651 758.033,437.523 757.166,436.608C757.018,436.452 755.828,434.183 759.528,435.331C761.049,435.803 761.027,435.739 762.558,436.156Z"/>
            <path d="M238.246,502.427C238.225,502.606 237.999,504.551 237.5,504.554C237.221,504.556 237.007,504.226 236.728,504.228C237.093,503.837 237.261,504.221 237.657,503.797C237.738,503.71 237.7,503.695 238.246,502.427Z"/>
        </g>
    </g>
</svg>
