<svg width="24" height="24" viewBox="0 0 24 24" fill="none" xmlns="http://www.w3.org/2000/svg">
  <path d="M6.94 8.5H3.56V20H6.94V8.5Z" fill="currentColor"/>
  <path d="M5.25 7.02C6.33 7.02 7.2 6.15 7.2 5.07C7.2 3.99 6.33 3.12 5.25 3.12C4.17 3.12 3.3 3.99 3.3 5.07C3.3 6.15 4.17 7.02 5.25 7.02Z" fill="currentColor"/>
  <path d="M20.7 13.18C20.7 9.65 18.82 8 16.31 8C14.29 8 13.39 9.11 12.88 9.89V8.5H9.63C9.67 9.42 9.63 20 9.63 20H12.88V13.58C12.88 13.24 12.91 12.91 13 12.67C13.27 12 13.89 11.31 14.92 11.31C16.27 11.31 16.81 12.34 16.81 13.86V20H20.06V13.18H20.7Z" fill="currentColor"/>
</svg>
