<svg width="969" height="1022" viewBox="0 0 969 1022" fill="none" xmlns="http://www.w3.org/2000/svg">
<path fill-rule="evenodd" clip-rule="evenodd" d="M91.3198 168.949C90.8925 168.985 90.6522 169.002 90.2132 168.745C89.3647 168.25 88.6408 166.446 89.4658 165.443C89.9016 164.913 90.3716 164.877 90.9043 164.783C91.1853 164.733 91.7797 164.873 92.0322 165.027C92.3331 165.209 92.5988 165.37 92.8001 165.769C93.6288 167.415 92.3355 168.949 91.3198 168.949Z" fill="#F1C21B"/>
<path fill-rule="evenodd" clip-rule="evenodd" d="M112.926 164.752C112.499 164.788 112.258 164.805 111.819 164.548C110.971 164.053 110.247 162.249 111.072 161.246C111.508 160.716 111.978 160.68 112.51 160.586C112.791 160.536 113.386 160.676 113.638 160.829C113.939 161.012 114.205 161.173 114.406 161.572C115.235 163.218 113.942 164.752 112.926 164.752Z" fill="#F1C21B"/>
<path fill-rule="evenodd" clip-rule="evenodd" d="M103.409 215.535C102.981 215.571 102.741 215.588 102.302 215.331C101.453 214.836 100.73 213.032 101.555 212.029C101.99 211.499 102.46 211.463 102.993 211.369C103.274 211.319 103.868 211.459 104.121 211.613C104.422 211.796 104.688 211.956 104.889 212.355C105.718 214.001 104.424 215.535 103.409 215.535Z" fill="#F1C21B"/>
<path fill-rule="evenodd" clip-rule="evenodd" d="M933.443 366.068C933.015 366.104 932.775 366.121 932.336 365.865C931.488 365.369 930.764 363.565 931.589 362.562C932.024 362.033 932.494 361.997 933.027 361.902C933.308 361.852 933.903 361.992 934.155 362.146C934.456 362.329 934.722 362.489 934.923 362.888C935.752 364.534 934.458 366.068 933.443 366.068Z" fill="#F1C21B"/>
<path fill-rule="evenodd" clip-rule="evenodd" d="M581.109 582.493C580.681 582.529 580.441 582.546 580.002 582.289C579.153 581.794 578.43 579.99 579.255 578.987C579.69 578.457 580.16 578.421 580.693 578.327C580.974 578.277 581.568 578.417 581.821 578.571C582.122 578.753 582.388 578.914 582.589 579.313C583.418 580.959 582.124 582.493 581.109 582.493Z" fill="#F1C21B"/>
<path fill-rule="evenodd" clip-rule="evenodd" d="M2.2171 702.332C1.78986 702.368 1.54947 702.385 1.11049 702.128C0.262047 701.633 -0.46187 699.829 0.363138 698.826C0.798914 698.296 1.26888 698.26 1.80162 698.166C2.08258 698.116 2.677 698.256 2.92955 698.409C3.2304 698.592 3.49612 698.752 3.69742 699.152C4.52612 700.798 3.23282 702.332 2.2171 702.332Z" fill="#F1C21B"/>
<path fill-rule="evenodd" clip-rule="evenodd" d="M955.048 348.665C954.62 348.7 954.38 348.717 953.941 348.461C953.093 347.965 952.369 346.162 953.194 345.159C953.63 344.629 954.099 344.593 954.632 344.498C954.913 344.449 955.508 344.589 955.76 344.742C956.061 344.925 956.327 345.085 956.528 345.485C957.357 347.13 956.063 348.665 955.048 348.665Z" fill="#F1C21B"/>
<path fill-rule="evenodd" clip-rule="evenodd" d="M602.714 565.09C602.286 565.126 602.046 565.143 601.607 564.886C600.759 564.391 600.035 562.587 600.86 561.584C601.295 561.054 601.765 561.018 602.298 560.924C602.579 560.874 603.174 561.014 603.426 561.167C603.727 561.35 603.993 561.511 604.194 561.91C605.023 563.556 603.729 565.09 602.714 565.09Z" fill="#F1C21B"/>
<path fill-rule="evenodd" clip-rule="evenodd" d="M23.8232 684.928C23.3959 684.964 23.1555 684.981 22.7165 684.725C21.8681 684.229 21.1442 682.425 21.9692 681.422C22.405 680.893 22.8749 680.857 23.4077 680.762C23.6886 680.712 24.283 680.852 24.5356 681.006C24.8365 681.189 25.1022 681.349 25.3035 681.749C26.1322 683.394 24.8389 684.928 23.8232 684.928Z" fill="#F1C21B"/>
<path fill-rule="evenodd" clip-rule="evenodd" d="M259.123 291.356C258.696 291.392 258.455 291.409 258.016 291.152C257.168 290.657 256.444 288.853 257.269 287.85C257.705 287.32 258.175 287.284 258.707 287.19C258.988 287.14 259.583 287.28 259.835 287.434C260.136 287.617 260.402 287.777 260.603 288.176C261.432 289.822 260.139 291.356 259.123 291.356Z" fill="#F1C21B"/>
<path fill-rule="evenodd" clip-rule="evenodd" d="M402.498 171.048C402.071 171.083 401.831 171.1 401.392 170.844C400.543 170.348 399.819 168.545 400.644 167.542C401.08 167.012 401.55 166.976 402.083 166.881C402.364 166.832 402.958 166.972 403.211 167.125C403.511 167.308 403.777 167.468 403.978 167.868C404.807 169.513 403.514 171.048 402.498 171.048Z" fill="#F1C21B"/>
<path fill-rule="evenodd" clip-rule="evenodd" d="M562.932 242.436C562.504 242.472 562.264 242.488 561.825 242.232C560.977 241.737 560.253 239.933 561.078 238.93C561.513 238.4 561.983 238.364 562.516 238.27C562.797 238.22 563.392 238.36 563.644 238.513C563.945 238.696 564.211 238.856 564.412 239.256C565.241 240.902 563.947 242.436 562.932 242.436Z" fill="#F1C21B"/>
<path fill-rule="evenodd" clip-rule="evenodd" d="M566.893 151.211C566.466 151.247 566.226 151.264 565.787 151.007C564.938 150.512 564.214 148.708 565.039 147.705C565.475 147.175 565.945 147.139 566.478 147.045C566.759 146.995 567.353 147.135 567.606 147.288C567.907 147.471 568.172 147.632 568.374 148.031C569.202 149.677 567.909 151.211 566.893 151.211Z" fill="#F1C21B"/>
<path fill-rule="evenodd" clip-rule="evenodd" d="M518.842 414.307C518.415 414.343 518.175 414.36 517.736 414.103C516.887 413.608 516.163 411.804 516.988 410.801C517.424 410.272 517.894 410.235 518.427 410.141C518.708 410.091 519.302 410.231 519.555 410.385C519.856 410.568 520.121 410.728 520.323 411.127C521.151 412.773 519.858 414.307 518.842 414.307Z" fill="#F1C21B"/>
<path fill-rule="evenodd" clip-rule="evenodd" d="M808.877 343.182C808.45 343.218 808.209 343.234 807.77 342.978C806.922 342.483 806.198 340.679 807.023 339.676C807.459 339.146 807.929 339.11 808.462 339.016C808.743 338.966 809.337 339.106 809.59 339.259C809.89 339.442 810.156 339.602 810.357 340.002C811.186 341.648 809.893 343.182 808.877 343.182Z" fill="#F1C21B"/>
<path fill-rule="evenodd" clip-rule="evenodd" d="M967.255 680.732C966.828 680.768 966.588 680.785 966.149 680.529C965.3 680.033 964.576 678.229 965.401 677.226C965.837 676.697 966.307 676.661 966.84 676.566C967.121 676.516 967.715 676.656 967.968 676.81C968.269 676.993 968.534 677.153 968.736 677.552C969.564 679.198 968.271 680.732 967.255 680.732Z" fill="#F1C21B"/>
<path fill-rule="evenodd" clip-rule="evenodd" d="M480.513 780.03C480.086 780.065 479.845 780.082 479.406 779.826C478.558 779.33 477.834 777.526 478.659 776.523C479.095 775.994 479.565 775.958 480.098 775.863C480.378 775.813 480.973 775.953 481.225 776.107C481.526 776.29 481.792 776.45 481.993 776.85C482.822 778.495 481.529 780.03 480.513 780.03Z" fill="#F1C21B"/>
<path fill-rule="evenodd" clip-rule="evenodd" d="M326.091 981.228C325.663 981.264 325.423 981.281 324.984 981.025C324.136 980.529 323.412 978.725 324.237 977.722C324.673 977.193 325.143 977.157 325.675 977.062C325.956 977.012 326.551 977.152 326.803 977.306C327.104 977.489 327.37 977.649 327.571 978.049C328.4 979.694 327.106 981.228 326.091 981.228Z" fill="#F1C21B"/>
<path fill-rule="evenodd" clip-rule="evenodd" d="M522.804 64.3999C522.377 64.4357 522.136 64.4525 521.697 64.1961C520.849 63.7006 520.125 61.8969 520.95 60.8939C521.386 60.3641 521.856 60.3281 522.389 60.2337C522.669 60.1838 523.264 60.3237 523.517 60.4773C523.817 60.6602 524.083 60.8204 524.284 61.2201C525.113 62.8656 523.82 64.3999 522.804 64.3999Z" fill="#F1C21B"/>
<path fill-rule="evenodd" clip-rule="evenodd" d="M708.527 110.401C708.1 110.437 707.859 110.454 707.42 110.198C706.572 109.702 705.848 107.898 706.673 106.895C707.109 106.366 707.579 106.33 708.111 106.235C708.392 106.185 708.987 106.325 709.239 106.479C709.54 106.662 709.806 106.822 710.007 107.221C710.836 108.867 709.543 110.401 708.527 110.401Z" fill="#F1C21B"/>
<path fill-rule="evenodd" clip-rule="evenodd" d="M775.262 573.793C774.835 573.828 774.595 573.845 774.156 573.589C773.307 573.093 772.583 571.289 773.408 570.286C773.844 569.757 774.314 569.721 774.847 569.626C775.128 569.576 775.722 569.716 775.975 569.87C776.275 570.053 776.541 570.213 776.742 570.613C777.571 572.258 776.278 573.793 775.262 573.793Z" fill="#F1C21B"/>
<path fill-rule="evenodd" clip-rule="evenodd" d="M955.048 370.265C954.62 370.301 954.38 370.318 953.941 370.062C953.093 369.566 952.369 367.762 953.194 366.759C953.63 366.23 954.099 366.194 954.632 366.099C954.913 366.049 955.508 366.189 955.76 366.343C956.061 366.526 956.327 366.686 956.528 367.086C957.357 368.731 956.063 370.265 955.048 370.265Z" fill="#F1C21B"/>
<path fill-rule="evenodd" clip-rule="evenodd" d="M602.714 586.69C602.286 586.726 602.046 586.743 601.607 586.487C600.759 585.991 600.035 584.187 600.86 583.184C601.295 582.655 601.765 582.619 602.298 582.524C602.579 582.474 603.174 582.614 603.426 582.768C603.727 582.951 603.993 583.111 604.194 583.51C605.023 585.156 603.729 586.69 602.714 586.69Z" fill="#F1C21B"/>
<path fill-rule="evenodd" clip-rule="evenodd" d="M23.8232 706.529C23.3959 706.565 23.1555 706.582 22.7165 706.325C21.8681 705.83 21.1442 704.026 21.9692 703.023C22.405 702.493 22.8749 702.457 23.4077 702.363C23.6886 702.313 24.283 702.453 24.5356 702.606C24.8365 702.789 25.1022 702.95 25.3035 703.349C26.1322 704.995 24.8389 706.529 23.8232 706.529Z" fill="#F1C21B"/>
<path fill-rule="evenodd" clip-rule="evenodd" d="M666.249 580.395C665.821 580.431 665.581 580.447 665.142 580.191C664.293 579.695 663.57 577.892 664.395 576.889C664.83 576.359 665.3 576.323 665.833 576.229C666.114 576.179 666.708 576.319 666.961 576.472C667.262 576.655 667.528 576.815 667.729 577.215C668.558 578.86 667.264 580.395 666.249 580.395Z" fill="#F1C21B"/>
<path fill-rule="evenodd" clip-rule="evenodd" d="M87.358 700.234C86.9308 700.269 86.6904 700.286 86.2514 700.03C85.403 699.534 84.6791 697.73 85.5041 696.727C85.9399 696.198 86.4098 696.162 86.9426 696.067C87.2235 696.017 87.8179 696.157 88.0705 696.311C88.3713 696.494 88.6371 696.654 88.8384 697.054C89.6671 698.699 88.3738 700.234 87.358 700.234Z" fill="#F1C21B"/>
<path fill-rule="evenodd" clip-rule="evenodd" d="M225.529 469.651C225.102 469.687 224.862 469.704 224.423 469.447C223.574 468.952 222.85 467.148 223.675 466.145C224.111 465.615 224.581 465.579 225.114 465.485C225.395 465.435 225.989 465.575 226.242 465.729C226.543 465.911 226.808 466.072 227.01 466.471C227.838 468.117 226.545 469.651 225.529 469.651Z" fill="#F1C21B"/>
<path fill-rule="evenodd" clip-rule="evenodd" d="M288.956 521.015C288.529 521.05 288.288 521.067 287.849 520.811C287.001 520.315 286.277 518.511 287.102 517.508C287.538 516.979 288.008 516.943 288.541 516.848C288.822 516.798 289.416 516.938 289.669 517.092C289.969 517.275 290.235 517.435 290.436 517.835C291.265 519.48 289.972 521.015 288.956 521.015Z" fill="#F1C21B"/>
<path fill-rule="evenodd" clip-rule="evenodd" d="M221.568 619.967C221.14 620.002 220.9 620.019 220.461 619.763C219.612 619.267 218.889 617.464 219.714 616.461C220.149 615.931 220.619 615.895 221.152 615.8C221.433 615.751 222.027 615.89 222.28 616.044C222.581 616.227 222.847 616.387 223.048 616.787C223.877 618.432 222.583 619.967 221.568 619.967Z" fill="#F1C21B"/>
<path fill-rule="evenodd" clip-rule="evenodd" d="M365.292 704.53C364.865 704.566 364.625 704.582 364.186 704.326C363.337 703.83 362.613 702.027 363.438 701.024C363.874 700.494 364.344 700.458 364.877 700.364C365.158 700.314 365.752 700.454 366.005 700.607C366.306 700.79 366.571 700.95 366.773 701.35C367.601 702.995 366.308 704.53 365.292 704.53Z" fill="#F1C21B"/>
<path fill-rule="evenodd" clip-rule="evenodd" d="M211.833 516.818C211.406 516.854 211.165 516.871 210.726 516.615C209.878 516.119 209.154 514.315 209.979 513.312C210.415 512.783 210.885 512.747 211.418 512.652C211.699 512.602 212.293 512.742 212.546 512.896C212.846 513.079 213.112 513.239 213.313 513.639C214.142 515.284 212.849 516.818 211.833 516.818Z" fill="#F1C21B"/>
<path fill-rule="evenodd" clip-rule="evenodd" d="M583.089 615.77C582.662 615.805 582.421 615.822 581.982 615.566C581.134 615.07 580.41 613.267 581.235 612.264C581.671 611.734 582.141 611.698 582.673 611.603C582.954 611.554 583.549 611.693 583.801 611.847C584.102 612.03 584.368 612.19 584.569 612.59C585.398 614.235 584.105 615.77 583.089 615.77Z" fill="#F1C21B"/>
<path fill-rule="evenodd" clip-rule="evenodd" d="M4.19846 735.608C3.77122 735.644 3.53083 735.661 3.09185 735.405C2.2434 734.909 1.51949 733.105 2.3445 732.102C2.78027 731.573 3.25023 731.537 3.78298 731.442C4.06393 731.392 4.65836 731.532 4.9109 731.686C5.21176 731.869 5.47748 732.029 5.67878 732.428C6.50748 734.074 5.21418 735.608 4.19846 735.608Z" fill="#F1C21B"/>
<path d="M142.107 747.446C143.588 747.272 143.423 746.174 142.525 745.101C140.8 743.038 138.423 742.17 136.721 742.034C135.613 741.945 134.864 742.483 134.58 743.643C134.363 744.531 134.645 745.796 135.323 747.115C136.251 748.918 137.894 750.963 138.437 751.989C138.46 752.032 138.485 752.092 138.509 752.163C138.191 751.944 137.835 751.637 137.446 751.315C135.514 749.72 133.252 747.309 132.003 746.495C131.667 746.277 129.513 744.838 128.593 744.729C127.785 744.633 127.269 745.041 126.99 745.53C126.642 746.14 126.558 746.878 126.77 747.684C127.091 748.9 128.421 750.464 128.82 751.048C130.426 753.38 132.154 755.555 133.762 757.86C134.426 758.813 135.071 759.787 135.675 760.809C135.805 761.029 136.408 761.909 136.827 762.812C136.856 762.875 136.886 762.946 136.914 763.021C136.663 762.923 136.418 762.753 136.178 762.563C135.184 761.777 134.308 760.546 133.648 759.788C131.798 757.661 130.031 755.386 128.141 753.281C126.835 751.827 125.472 750.45 123.975 749.263C123.112 748.546 120.762 746.752 118.876 746.174C117.402 745.722 116.16 746.07 115.397 747.149C114.785 748.014 114.713 749.253 115.049 750.611C115.519 752.507 116.941 754.7 117.521 755.489C118.628 756.956 119.818 758.357 121.098 759.664C122.903 761.507 124.848 763.185 126.535 765.145C127.209 765.929 127.853 766.743 128.437 767.62C128.725 768.057 129.784 769.537 130.53 771.039C130.734 771.449 130.776 772.015 130.865 772.41C130.745 772.382 130.621 772.342 130.498 772.31C129.839 772.136 129.193 771.771 128.747 771.487C127.117 770.449 125.775 769.461 124.519 768.319C123.29 767.2 122.149 765.927 120.893 764.322L117.755 760.809C115.829 758.554 113.512 761.338 115.329 763.485L118.387 766.969C119.83 768.699 121.14 770.059 122.536 771.255C123.952 772.468 125.452 773.519 127.275 774.607C128.069 775.081 129.297 775.672 130.45 775.816C131.543 775.953 132.573 775.717 133.346 774.983C134.045 774.319 134.359 773.163 133.997 771.677C133.477 769.55 131.404 766.268 130.954 765.538C130.026 763.993 128.952 762.585 127.803 761.248C126.277 759.471 124.656 757.777 123.012 756.134C121.961 755.084 120.88 754.092 119.905 752.976C119.601 752.631 119.011 751.911 118.499 751.069C118.207 750.589 117.921 750.083 117.755 749.584C117.7 749.421 117.645 749.268 117.626 749.115C117.591 748.837 117.815 748.928 118.032 748.908C118.5 748.967 119.023 749.15 119.542 749.397C120.841 750.014 122.113 750.959 122.681 751.393C124.072 752.499 125.342 753.777 126.548 755.139C128.416 757.247 130.136 759.548 131.953 761.691C132.825 762.722 134.063 764.45 135.431 765.304C136.262 765.823 137.142 766.047 138.035 765.861C139.135 765.632 139.563 764.852 139.618 763.834C139.647 763.306 139.509 762.634 139.243 761.945C138.791 760.772 137.96 759.489 137.795 759.199C137.168 758.101 136.499 757.05 135.805 756.025C134.326 753.84 132.736 751.774 131.243 749.584C132.722 750.751 135.018 753.165 136.806 754.408C137.758 755.069 138.627 755.421 139.261 755.414C140.382 755.403 140.919 754.775 141.172 753.997C141.303 753.59 141.346 753.093 141.274 752.565C141.171 751.808 140.838 750.961 140.57 750.477C140.078 749.588 138.739 747.941 137.756 746.346C137.432 745.82 136.806 745.101 136.978 744.834C137.149 744.566 140.383 746.712 140.383 746.712C140.57 746.84 140.857 747.06 141.134 747.208C141.201 747.259 141.276 747.304 141.358 747.343C141.578 747.446 141.969 747.462 142.107 747.446Z" fill="#F1C21B"/>
<path d="M355.272 223.906C356.753 223.732 356.588 222.634 355.69 221.561C353.965 219.498 351.588 218.631 349.886 218.494C348.778 218.405 348.028 218.943 347.745 220.103C347.527 220.991 347.81 222.256 348.488 223.575C349.416 225.378 351.059 227.423 351.602 228.449C351.625 228.492 351.65 228.553 351.674 228.623C351.356 228.404 351 228.097 350.611 227.775C348.679 226.18 346.417 223.769 345.168 222.956C344.832 222.738 342.678 221.299 341.758 221.189C340.95 221.093 340.434 221.501 340.155 221.99C339.807 222.6 339.722 223.338 339.935 224.144C340.256 225.36 341.586 226.924 341.985 227.508C343.591 229.841 345.318 232.015 346.927 234.321C347.591 235.273 348.236 236.247 348.84 237.269C348.97 237.489 349.573 238.369 349.992 239.272C350.021 239.335 350.051 239.407 350.079 239.481C349.828 239.383 349.583 239.213 349.343 239.023C348.348 238.237 347.473 237.006 346.813 236.248C344.963 234.121 343.196 231.846 341.306 229.742C340 228.287 338.637 226.91 337.14 225.723C336.277 225.006 333.927 223.212 332.041 222.634C330.567 222.183 329.325 222.531 328.562 223.61C327.95 224.474 327.878 225.714 328.214 227.071C328.684 228.967 330.106 231.16 330.686 231.949C331.792 233.416 332.983 234.817 334.263 236.124C336.068 237.967 338.013 239.645 339.699 241.606C340.374 242.389 341.018 243.203 341.602 244.08C341.889 244.517 342.949 245.997 343.695 247.499C343.899 247.91 343.941 248.475 344.03 248.87C343.91 248.842 343.786 248.802 343.663 248.77C343.004 248.596 342.358 248.231 341.912 247.948C340.282 246.91 338.94 245.922 337.684 244.779C336.454 243.66 335.314 242.387 334.058 240.782L330.92 237.269C328.993 235.014 326.677 237.798 328.494 239.945L331.552 243.429C332.995 245.159 334.305 246.519 335.701 247.715C337.117 248.928 338.617 249.979 340.44 251.067C341.234 251.541 342.462 252.132 343.615 252.277C344.708 252.413 345.738 252.177 346.511 251.443C347.21 250.779 347.524 249.623 347.161 248.138C346.642 246.01 344.569 242.728 344.119 241.999C343.191 240.453 342.117 239.045 340.968 237.708C339.442 235.932 337.82 234.237 336.177 232.594C335.126 231.545 334.045 230.552 333.07 229.436C332.766 229.092 332.176 228.372 331.664 227.529C331.372 227.049 331.086 226.543 330.92 226.044C330.865 225.882 330.81 225.728 330.791 225.576C330.756 225.297 330.98 225.388 331.197 225.368C331.665 225.427 332.188 225.61 332.707 225.857C334.006 226.474 335.278 227.419 335.846 227.853C337.237 228.959 338.507 230.237 339.713 231.599C341.58 233.707 343.301 236.008 345.117 238.151C345.99 239.183 347.228 240.91 348.596 241.764C349.426 242.283 350.307 242.507 351.2 242.321C352.3 242.092 352.728 241.312 352.783 240.294C352.812 239.766 352.673 239.094 352.408 238.405C351.956 237.232 351.125 235.949 350.96 235.659C350.333 234.561 349.664 233.51 348.97 232.485C347.491 230.301 345.901 228.234 344.408 226.044C345.887 227.211 348.183 229.625 349.971 230.868C350.922 231.529 351.792 231.881 352.426 231.874C353.546 231.863 354.084 231.235 354.336 230.457C354.468 230.051 354.511 229.553 354.439 229.025C354.336 228.268 354.003 227.421 353.735 226.937C353.242 226.049 351.904 224.401 350.921 222.806C350.597 222.28 349.971 221.561 350.142 221.294C350.314 221.027 353.548 223.172 353.548 223.172C353.735 223.3 354.022 223.521 354.299 223.668C354.366 223.719 354.44 223.765 354.523 223.803C354.742 223.906 355.134 223.922 355.272 223.906Z" fill="#F1C21B"/>
<path d="M786.211 437.068C787.692 436.894 787.527 435.796 786.629 434.723C784.904 432.659 782.527 431.792 780.825 431.656C779.717 431.567 778.967 432.104 778.684 433.264C778.466 434.153 778.749 435.418 779.427 436.736C780.355 438.54 781.998 440.585 782.541 441.611C782.564 441.654 782.589 441.714 782.613 441.784C782.295 441.566 781.939 441.258 781.55 440.937C779.618 439.341 777.356 436.931 776.107 436.117C775.771 435.899 773.617 434.46 772.697 434.351C771.889 434.255 771.373 434.662 771.094 435.152C770.746 435.762 770.662 436.499 770.874 437.305C771.195 438.522 772.525 440.086 772.924 440.67C774.53 443.002 776.257 445.177 777.866 447.482C778.53 448.435 779.175 449.409 779.779 450.43C779.909 450.65 780.512 451.531 780.931 452.434C780.96 452.497 780.99 452.568 781.018 452.643C780.767 452.544 780.522 452.374 780.282 452.185C779.287 451.399 778.412 450.168 777.752 449.41C775.902 447.282 774.135 445.008 772.245 442.903C770.939 441.449 769.576 440.072 768.079 438.884C767.216 438.167 764.866 436.374 762.98 435.796C761.506 435.344 760.264 435.692 759.501 436.771C758.889 437.636 758.817 438.875 759.153 440.233C759.623 442.129 761.045 444.322 761.625 445.11C762.731 446.578 763.922 447.979 765.202 449.286C767.007 451.129 768.952 452.807 770.639 454.767C771.313 455.551 771.957 456.365 772.541 457.242C772.828 457.678 773.888 459.159 774.634 460.66C774.838 461.071 774.88 461.636 774.969 462.032C774.849 462.004 774.725 461.964 774.602 461.931C773.943 461.758 773.297 461.393 772.851 461.109C771.221 460.071 769.879 459.083 768.623 457.94C767.393 456.822 766.253 455.548 764.997 453.944L761.859 450.43C759.932 448.176 757.616 450.96 759.433 453.107L762.491 456.59C763.934 458.321 765.244 459.68 766.64 460.876C768.056 462.089 769.556 463.14 771.379 464.228C772.173 464.703 773.401 465.294 774.554 465.438C775.647 465.575 776.677 465.338 777.45 464.604C778.149 463.941 778.463 462.785 778.1 461.299C777.581 459.172 775.508 455.889 775.058 455.16C774.13 453.615 773.056 452.207 771.907 450.869C770.381 449.093 768.76 447.398 767.116 445.756C766.065 444.706 764.984 443.714 764.009 442.597C763.705 442.253 763.115 441.533 762.603 440.691C762.311 440.21 762.025 439.704 761.859 439.206C761.804 439.043 761.749 438.889 761.73 438.737C761.695 438.458 761.919 438.55 762.136 438.529C762.604 438.588 763.127 438.772 763.646 439.018C764.945 439.635 766.217 440.581 766.785 441.014C768.176 442.121 769.446 443.398 770.652 444.76C772.519 446.869 774.24 449.17 776.056 451.313C776.929 452.344 778.167 454.072 779.535 454.926C780.365 455.444 781.246 455.669 782.139 455.482C783.239 455.253 783.667 454.474 783.722 453.456C783.751 452.928 783.613 452.256 783.347 451.567C782.895 450.393 782.064 449.11 781.899 448.821C781.272 447.723 780.603 446.672 779.909 445.647C778.43 443.462 776.84 441.396 775.347 439.206C776.826 440.373 779.122 442.786 780.91 444.029C781.861 444.691 782.731 445.042 783.365 445.036C784.486 445.025 785.023 444.396 785.275 443.619C785.407 443.212 785.45 442.715 785.378 442.187C785.275 441.43 784.942 440.582 784.674 440.099C784.181 439.21 782.843 437.563 781.86 435.967C781.536 435.442 780.91 434.723 781.081 434.455C781.253 434.188 784.487 436.334 784.487 436.334C784.674 436.462 784.961 436.682 785.238 436.83C785.305 436.881 785.379 436.926 785.462 436.965C785.682 437.068 786.073 437.084 786.211 437.068Z" fill="#F1C21B"/>
<path d="M462.529 1010.28C461.09 1009.84 460.916 1010.93 461.435 1012.31C462.433 1014.95 464.398 1016.74 465.951 1017.57C466.962 1018.12 467.824 1017.92 468.437 1016.95C468.907 1016.21 469.021 1014.91 468.781 1013.39C468.452 1011.32 467.526 1008.73 467.325 1007.55C467.316 1007.5 467.311 1007.43 467.309 1007.35C467.541 1007.69 467.782 1008.12 468.051 1008.59C469.381 1010.88 470.778 1014.07 471.704 1015.34C471.953 1015.69 473.539 1017.92 474.367 1018.41C475.095 1018.83 475.7 1018.66 476.108 1018.32C476.616 1017.89 476.916 1017.23 476.958 1016.39C477.022 1015.12 476.245 1013.11 476.047 1012.4C475.241 1009.55 474.275 1006.8 473.459 1003.98C473.122 1002.81 472.81 1001.63 472.551 1000.43C472.495 1000.17 472.194 999.097 472.072 998.078C472.063 998.008 472.057 997.928 472.053 997.847C472.259 998.043 472.437 998.303 472.605 998.579C473.301 999.726 473.751 1001.24 474.143 1002.22C475.238 1004.98 476.211 1007.84 477.351 1010.59C478.138 1012.49 479.002 1014.34 480.048 1016.07C480.641 1017.1 482.304 1019.74 483.897 1021.06C485.142 1022.1 486.408 1022.28 487.445 1021.59C488.277 1021.03 488.716 1019.9 488.808 1018.49C488.935 1016.52 488.261 1013.88 487.953 1012.9C487.357 1011.07 486.662 1009.27 485.855 1007.52C484.717 1005.05 483.398 1002.67 482.406 1000.14C482.009 999.13 481.65 998.102 481.366 997.04C481.227 996.513 480.679 994.69 480.43 992.976C480.362 992.507 480.492 991.961 480.526 991.553C480.631 991.629 480.735 991.718 480.84 991.799C481.405 992.234 481.901 992.842 482.233 993.292C483.448 994.936 484.409 996.415 485.243 998.003C486.059 999.558 486.746 1001.22 487.441 1003.24L489.327 1007.83C490.456 1010.73 493.457 1009.08 492.399 1006.32L490.579 1001.8C489.747 999.583 488.927 997.769 487.978 996.073C487.015 994.353 485.925 992.75 484.545 990.979C483.944 990.207 482.971 989.147 481.934 988.536C480.952 987.957 479.917 987.753 478.974 988.121C478.121 988.454 477.481 989.406 477.375 990.947C477.225 993.153 478.183 997.082 478.386 997.95C478.792 999.78 479.376 1001.54 480.051 1003.27C480.948 1005.56 481.959 1007.82 483.006 1010.03C483.676 1011.45 484.391 1012.82 484.969 1014.27C485.151 1014.72 485.488 1015.64 485.715 1016.64C485.845 1017.21 485.961 1017.8 485.967 1018.33C485.969 1018.51 485.975 1018.68 485.948 1018.83C485.897 1019.1 485.714 1018.92 485.505 1018.85C485.085 1018.6 484.65 1018.22 484.238 1017.77C483.207 1016.66 482.298 1015.25 481.897 1014.61C480.926 1013 480.119 1011.28 479.398 1009.5C478.281 1006.76 477.359 1003.9 476.3 1001.14C475.792 999.814 475.149 997.685 474.125 996.321C473.502 995.493 472.745 994.92 471.854 994.726C470.755 994.486 470.121 995.039 469.765 995.97C469.58 996.452 469.508 997.138 469.55 997.893C469.622 999.178 470.016 1000.72 470.084 1001.06C470.342 1002.35 470.654 1003.61 470.997 1004.85C471.727 1007.51 472.598 1010.1 473.34 1012.77C472.305 1011.06 470.877 1007.86 469.576 1005.95C468.883 1004.94 468.174 1004.26 467.579 1004C466.526 1003.55 465.835 1003.91 465.366 1004.54C465.121 1004.86 464.932 1005.31 464.841 1005.84C464.711 1006.59 464.769 1007.52 464.875 1008.08C465.07 1009.12 465.831 1011.21 466.273 1013.11C466.419 1013.74 466.79 1014.67 466.549 1014.85C466.309 1015.03 463.924 1011.68 463.924 1011.68C463.787 1011.49 463.583 1011.16 463.369 1010.91C463.321 1010.83 463.265 1010.76 463.199 1010.69C463.025 1010.5 462.663 1010.33 462.529 1010.28Z" fill="#F1C21B"/>
<path d="M619.231 22.3484C617.793 21.8998 617.619 22.9959 618.138 24.3709C619.136 27.015 621.101 28.8077 622.653 29.6381C623.664 30.1788 624.527 29.9846 625.14 29.0159C625.609 28.2735 625.723 26.9726 625.483 25.4587C625.155 23.3874 624.229 20.7947 624.027 19.61C624.019 19.56 624.013 19.4935 624.012 19.4176C624.244 19.7533 624.485 20.1882 624.753 20.6502C626.084 22.9409 627.481 26.1313 628.406 27.4087C628.656 27.7516 630.241 29.9877 631.07 30.4698C631.797 30.8931 632.403 30.7247 632.81 30.3817C633.318 29.9538 633.619 29.2986 633.661 28.4562C633.724 27.185 632.948 25.172 632.749 24.4602C631.943 21.6139 630.977 18.865 630.162 16.0431C629.825 14.8769 629.512 13.6986 629.253 12.4934C629.197 12.2334 628.897 11.1606 628.774 10.1422C628.766 10.0713 628.759 9.9921 628.755 9.91059C628.961 10.1064 629.139 10.3667 629.307 10.6432C630.003 11.7896 630.454 13.3031 630.845 14.2852C631.94 17.0406 632.913 19.8991 634.053 22.6498C634.841 24.5504 635.704 26.4021 636.75 28.1316C637.344 29.1592 639.007 31.8078 640.6 33.1277C641.844 34.159 643.111 34.3457 644.148 33.6504C644.98 33.0935 645.419 31.9633 645.51 30.5534C645.638 28.5843 644.963 25.9446 644.656 24.9668C644.06 23.1361 643.364 21.333 642.557 19.5816C641.419 17.1108 640.1 14.737 639.108 12.2059C638.712 11.1937 638.352 10.166 638.068 9.10413C637.93 8.57672 637.381 6.75365 637.132 5.03961C637.064 4.57093 637.194 4.02445 637.229 3.61724C637.333 3.69301 637.437 3.7819 637.543 3.86285C638.108 4.29778 638.603 4.90615 638.936 5.35538C640.151 6.99979 641.111 8.47865 641.945 10.0672C642.761 11.622 643.448 13.2847 644.144 15.3052L646.03 19.8899C647.158 22.7956 650.16 21.1449 649.102 18.3851L647.282 13.862C646.449 11.6465 645.63 9.83277 644.681 8.13695C643.718 6.41659 642.628 4.81357 641.247 3.04254C640.647 2.27085 639.674 1.21089 638.637 0.599667C637.655 0.0207579 636.619 -0.183389 635.676 0.18493C634.824 0.517783 634.183 1.47026 634.078 3.0108C633.927 5.21686 634.886 9.14548 635.088 10.0137C635.494 11.8435 636.078 13.6047 636.754 15.3314C637.651 17.624 638.662 19.8801 639.709 22.0964C640.378 23.5125 641.094 24.8881 641.672 26.3354C641.854 26.7833 642.19 27.7007 642.418 28.7009C642.547 29.271 642.663 29.8627 642.67 30.3981C642.672 30.5728 642.678 30.7396 642.65 30.89C642.599 31.1654 642.417 30.9871 642.208 30.9171C641.787 30.6686 641.352 30.2806 640.941 29.836C639.909 28.7222 639.001 27.3118 638.599 26.6717C637.628 25.062 636.822 23.3415 636.1 21.5686C634.983 18.8238 634.061 15.9597 633.002 13.2038C632.494 11.8778 631.852 9.74918 630.827 8.3851C630.205 7.55701 629.448 6.98366 628.556 6.78954C627.457 6.54982 626.824 7.1032 626.467 8.03346C626.283 8.51574 626.211 9.20219 626.253 9.95675C626.325 11.2416 626.719 12.786 626.787 13.1249C627.045 14.4117 627.357 15.6717 627.7 16.9179C628.43 19.5734 629.3 22.1643 630.043 24.8308C629.007 23.128 627.58 19.9206 626.278 18.0187C625.585 17.0069 624.877 16.319 624.281 16.0633C623.229 15.6114 622.537 15.9776 622.068 16.6014C621.823 16.9276 621.634 17.3759 621.544 17.8997C621.413 18.6511 621.472 19.5819 621.577 20.145C621.773 21.1803 622.533 23.2752 622.976 25.1745C623.121 25.8003 623.492 26.7316 623.252 26.9111C623.011 27.0906 620.626 23.7469 620.626 23.7469C620.489 23.5503 620.286 23.2251 620.071 22.9727C620.024 22.8974 619.968 22.8241 619.902 22.7538C619.727 22.5667 619.366 22.3904 619.231 22.3484Z" fill="#F1C21B"/>
<path fill-rule="evenodd" clip-rule="evenodd" d="M184.269 225.076C185.538 223.241 188.195 219.506 188.287 219.588L188.661 219.924C188.984 220.215 189.699 219.9 190.022 220.19C190.126 220.283 190.582 219.963 189.345 221.976C187.232 225.417 184.298 229.486 182.493 232.098C179.072 237.049 173.245 245.657 169.609 251.404C163.509 261.046 161.424 265.512 154.765 275.892C145.293 290.658 143.002 293.136 135.287 304.835C132.423 309.179 129.406 313.864 127.041 317.774C124.082 322.665 122.054 326.423 118.133 332.513C112.959 340.546 108.244 346.905 102.912 355.226C98.5818 361.984 96.3069 366.028 91.637 372.865C90.9528 373.867 90.2094 374.946 89.9601 375.189C88.8986 376.225 89.1237 375.156 88.8734 374.931C88.7005 374.775 88.2324 375.073 88.0581 374.916C87.9422 374.812 88.1236 374.257 88.0088 374.154C87.402 373.608 93.6843 364.608 98.2046 357.938C101.256 353.436 104.775 348.273 107.94 343.464C114.434 333.597 118.555 326.235 124.841 316.515C128.019 311.599 131.671 306.003 134.761 301.489C139.509 294.551 143.976 288.183 149.14 280.174C156.806 268.284 158.221 265.374 163.776 256.218C168.327 248.717 179.362 232.177 184.269 225.076Z" fill="#F1C21B"/>
<path fill-rule="evenodd" clip-rule="evenodd" d="M672.094 228.38C673.031 226.288 675.012 222.013 675.115 222.072L675.538 222.315C675.903 222.526 676.552 222.052 676.917 222.261C677.034 222.329 677.428 221.91 676.553 224.169C675.057 228.031 672.861 232.698 671.528 235.675C669.002 241.32 664.73 251.105 662.127 257.579C657.76 268.44 656.464 273.301 651.673 285.015C644.857 301.68 643.025 304.638 637.42 317.889C635.338 322.809 633.164 328.099 631.5 332.479C629.418 337.957 628.059 342.111 625.233 348.986C621.505 358.057 617.946 365.381 614.111 374.769C610.996 382.395 609.443 386.886 606.009 394.667C605.506 395.807 604.957 397.036 604.754 397.332C603.886 398.593 603.928 397.493 603.645 397.33C603.449 397.218 603.04 397.617 602.843 397.504C602.712 397.429 602.797 396.843 602.667 396.768C601.981 396.373 606.634 386.099 609.95 378.516C612.188 373.397 614.773 367.522 617.072 362.076C621.787 350.903 624.596 342.734 629.132 331.752C631.425 326.199 634.07 319.869 636.343 314.729C639.837 306.831 643.151 299.556 646.873 290.512C652.4 277.084 653.3 273.905 657.214 263.645C660.421 255.24 668.472 236.475 672.094 228.38Z" fill="#F1C21B"/>
<path fill-rule="evenodd" clip-rule="evenodd" d="M259.581 860.835C260.191 859.59 261.483 857.048 261.551 857.083L261.826 857.228C262.065 857.353 262.488 857.071 262.725 857.196C262.802 857.236 263.059 856.987 262.488 858.33C261.512 860.627 260.08 863.402 259.211 865.173C257.564 868.53 254.778 874.349 253.08 878.199C250.232 884.658 249.387 887.549 246.262 894.515C241.816 904.425 240.622 906.185 236.966 914.065C235.609 916.991 234.191 920.137 233.105 922.741C231.747 925.999 230.861 928.469 229.018 932.558C226.587 937.952 224.266 942.308 221.765 947.891C219.733 952.426 218.72 955.097 216.48 959.724C216.152 960.402 215.795 961.133 215.662 961.309C215.096 962.059 215.123 961.405 214.939 961.308C214.811 961.241 214.544 961.479 214.416 961.411C214.33 961.366 214.386 961.018 214.301 960.974C213.853 960.739 216.888 954.629 219.051 950.119C220.51 947.075 222.197 943.582 223.696 940.343C226.771 933.698 228.603 928.84 231.561 922.309C233.057 919.007 234.781 915.242 236.264 912.186C238.543 907.489 240.704 903.163 243.132 897.784C246.736 889.798 247.323 887.908 249.876 881.806C251.967 876.808 257.218 865.649 259.581 860.835Z" fill="#F1C21B"/>
<path fill-rule="evenodd" clip-rule="evenodd" d="M863.07 712.574C863.681 711.33 864.973 708.787 865.04 708.823L865.316 708.967C865.554 709.092 865.977 708.811 866.215 708.935C866.292 708.975 866.548 708.726 865.977 710.07C865.002 712.366 863.57 715.142 862.701 716.912C861.053 720.269 858.267 726.088 856.57 729.938C853.721 736.397 852.876 739.288 849.751 746.254C845.306 756.165 844.111 757.924 840.456 765.804C839.098 768.73 837.68 771.876 836.595 774.481C835.237 777.739 834.35 780.208 832.507 784.297C830.076 789.692 827.755 794.047 825.254 799.63C823.223 804.165 822.21 806.836 819.97 811.464C819.642 812.142 819.284 812.872 819.151 813.048C818.586 813.798 818.613 813.144 818.428 813.047C818.301 812.98 818.034 813.218 817.905 813.151C817.82 813.106 817.875 812.757 817.79 812.713C817.343 812.478 820.378 806.368 822.54 801.858C824 798.814 825.686 795.321 827.185 792.082C830.26 785.438 832.092 780.579 835.05 774.048C836.546 770.746 838.271 766.982 839.754 763.925C842.032 759.228 844.194 754.902 846.621 749.523C850.225 741.538 850.813 739.647 853.365 733.546C855.457 728.547 860.707 717.388 863.07 712.574Z" fill="#F1C21B"/>
<path fill-rule="evenodd" clip-rule="evenodd" d="M168.413 258.905C169.681 257.07 172.339 253.335 172.43 253.418L172.804 253.753C173.127 254.044 173.843 253.729 174.165 254.019C174.269 254.112 174.725 253.792 173.489 255.805C171.375 259.247 168.441 263.315 166.636 265.927C163.215 270.879 157.388 279.487 153.752 285.234C147.652 294.875 145.568 299.342 138.909 309.722C129.436 324.488 127.145 326.966 119.431 338.664C116.566 343.008 113.55 347.693 111.184 351.603C108.226 356.494 106.198 360.253 102.276 366.342C97.1023 374.375 92.3869 380.735 87.0554 389.055C82.7251 395.813 80.4502 399.858 75.7803 406.695C75.0961 407.696 74.3527 408.775 74.1034 409.018C73.0419 410.054 73.2669 408.985 73.0167 408.76C72.8438 408.605 72.3757 408.902 72.2014 408.745C72.0855 408.641 72.2669 408.086 72.1521 407.983C71.5452 407.438 77.8276 398.437 82.3479 391.768C85.3995 387.265 88.9179 382.103 92.0831 377.293C98.5768 367.427 102.699 360.064 108.984 350.344C112.162 345.428 115.815 339.832 118.904 335.318C123.653 328.38 128.119 322.012 133.283 314.004C140.949 302.113 142.364 299.203 147.919 290.047C152.47 282.547 163.506 266.006 168.413 258.905Z" fill="#F1C21B"/>
<path fill-rule="evenodd" clip-rule="evenodd" d="M662.21 265.209C663.146 263.117 665.127 258.842 665.231 258.901L665.653 259.144C666.019 259.354 666.668 258.881 667.032 259.09C667.15 259.158 667.543 258.738 666.668 260.998C665.172 264.86 662.976 269.527 661.644 272.504C659.118 278.149 654.846 287.933 652.243 294.408C647.876 305.269 646.58 310.129 641.788 321.844C634.972 338.508 633.141 341.467 627.535 354.718C625.454 359.638 623.28 364.928 621.615 369.308C619.533 374.786 618.174 378.939 615.348 385.815C611.62 394.885 608.061 402.209 604.227 411.598C601.112 419.224 599.559 423.714 596.124 431.496C595.621 432.636 595.073 433.865 594.869 434.161C594.002 435.422 594.043 434.322 593.76 434.159C593.565 434.046 593.156 434.446 592.959 434.333C592.827 434.257 592.912 433.671 592.783 433.597C592.096 433.202 596.749 422.927 600.065 415.344C602.303 410.225 604.889 404.351 607.187 398.905C611.903 387.732 614.712 379.562 619.247 368.581C621.541 363.027 624.185 356.698 626.459 351.558C629.953 343.659 633.267 336.385 636.989 327.341C642.515 313.913 643.416 310.733 647.33 300.474C650.536 292.069 658.587 273.304 662.21 265.209Z" fill="#F1C21B"/>
<path fill-rule="evenodd" clip-rule="evenodd" d="M253.133 882.736C253.744 881.492 255.036 878.949 255.103 878.985L255.379 879.129C255.617 879.254 256.04 878.973 256.278 879.097C256.355 879.138 256.611 878.888 256.041 880.232C255.065 882.528 253.633 885.304 252.764 887.074C251.116 890.431 248.33 896.25 246.633 900.1C243.785 906.559 242.939 909.45 239.814 916.416C235.369 926.327 234.174 928.086 230.519 935.966C229.161 938.892 227.743 942.038 226.658 944.643C225.3 947.901 224.414 950.371 222.57 954.46C220.139 959.854 217.818 964.209 215.317 969.793C213.286 974.327 212.273 976.998 210.033 981.626C209.705 982.304 209.347 983.035 209.214 983.211C208.649 983.96 208.676 983.306 208.491 983.209C208.364 983.142 208.097 983.38 207.968 983.313C207.883 983.268 207.938 982.919 207.854 982.875C207.406 982.64 210.441 976.53 212.603 972.02C214.063 968.976 215.749 965.483 217.248 962.244C220.323 955.6 222.155 950.741 225.113 944.211C226.609 940.908 228.334 937.144 229.817 934.087C232.096 929.39 234.257 925.064 236.684 919.685C240.289 911.7 240.876 909.809 243.428 903.708C245.52 898.709 250.77 887.55 253.133 882.736Z" fill="#F1C21B"/>
<path fill-rule="evenodd" clip-rule="evenodd" d="M856.624 734.476C857.234 733.232 858.526 730.69 858.594 730.725L858.869 730.87C859.108 730.995 859.531 730.713 859.768 730.837C859.845 730.878 860.102 730.628 859.531 731.972C858.555 734.269 857.123 737.044 856.254 738.815C854.607 742.171 851.821 747.99 850.123 751.841C847.275 758.3 846.43 761.19 843.305 768.157C838.859 778.067 837.665 779.826 834.009 787.706C832.652 790.632 831.234 793.778 830.148 796.383C828.79 799.641 827.904 802.111 826.061 806.2C823.63 811.594 821.309 815.949 818.808 821.533C816.776 826.068 815.763 828.738 813.523 833.366C813.195 834.044 812.838 834.775 812.705 834.951C812.139 835.701 812.166 835.046 811.982 834.95C811.854 834.883 811.587 835.12 811.459 835.053C811.373 835.008 811.429 834.66 811.344 834.615C810.896 834.381 813.931 828.27 816.094 823.761C817.553 820.716 819.24 817.223 820.739 813.984C823.814 807.34 825.646 802.481 828.604 795.951C830.1 792.648 831.824 788.884 833.307 785.827C835.586 781.13 837.747 776.804 840.175 771.426C843.779 763.44 844.366 761.549 846.919 755.448C849.01 750.45 854.261 739.29 856.624 734.476Z" fill="#F1C21B"/>
<path fill-rule="evenodd" clip-rule="evenodd" d="M200.519 219.059C201.787 217.224 204.445 213.489 204.536 213.572L204.91 213.908C205.233 214.198 205.949 213.883 206.271 214.173C206.375 214.267 206.831 213.946 205.595 215.959C203.481 219.401 200.547 223.47 198.742 226.082C195.321 231.033 189.494 239.641 185.858 245.388C179.758 255.029 177.673 259.496 171.014 269.876C161.542 284.642 159.251 287.12 151.537 298.818C148.672 303.162 145.655 307.847 143.29 311.757C140.332 316.648 138.304 320.407 134.382 326.496C129.208 334.529 124.493 340.889 119.161 349.209C114.831 355.967 112.556 360.012 107.886 366.849C107.202 367.85 106.458 368.929 106.209 369.172C105.148 370.208 105.373 369.139 105.123 368.914C104.95 368.759 104.481 369.056 104.307 368.9C104.191 368.795 104.373 368.24 104.258 368.137C103.651 367.592 109.933 358.592 114.454 351.922C117.505 347.419 121.024 342.257 124.189 337.447C130.683 327.581 134.805 320.219 141.09 310.498C144.268 305.582 147.921 299.987 151.01 295.472C155.758 288.534 160.225 282.167 165.389 274.158C173.055 262.267 174.47 259.358 180.025 250.202C184.576 242.701 195.612 226.16 200.519 219.059Z" fill="#F1C21B"/>
<path fill-rule="evenodd" clip-rule="evenodd" d="M687.019 218.73C687.956 216.638 689.937 212.363 690.04 212.422L690.463 212.665C690.828 212.875 691.477 212.402 691.841 212.611C691.959 212.679 692.353 212.26 691.477 214.519C689.982 218.381 687.786 223.048 686.453 226.025C683.927 231.67 679.655 241.455 677.052 247.929C672.685 258.79 671.389 263.65 666.597 275.365C659.781 292.029 657.95 294.988 652.344 308.239C650.263 313.159 648.089 318.449 646.425 322.829C644.343 328.307 642.983 332.46 640.158 339.336C636.429 348.407 632.871 355.731 629.036 365.119C625.921 372.745 624.368 377.236 620.934 385.017C620.43 386.157 619.882 387.386 619.678 387.682C618.811 388.943 618.853 387.843 618.57 387.68C618.374 387.568 617.965 387.967 617.768 387.854C617.637 387.778 617.722 387.192 617.592 387.118C616.906 386.723 621.559 376.448 624.874 368.865C627.113 363.746 629.698 357.872 631.997 352.426C636.712 341.253 639.521 333.083 644.057 322.102C646.35 316.548 648.995 310.219 651.268 305.079C654.762 297.18 658.076 289.906 661.798 280.862C667.325 267.434 668.225 264.254 672.139 253.995C675.346 245.59 683.397 226.825 687.019 218.73Z" fill="#F1C21B"/>
<path fill-rule="evenodd" clip-rule="evenodd" d="M269.314 855.095C269.925 853.851 271.217 851.308 271.284 851.344L271.56 851.488C271.798 851.613 272.221 851.332 272.459 851.456C272.536 851.497 272.792 851.247 272.222 852.591C271.246 854.888 269.814 857.663 268.945 859.433C267.297 862.79 264.511 868.609 262.814 872.459C259.966 878.918 259.12 881.809 255.995 888.775C251.55 898.686 250.355 900.445 246.7 908.325C245.342 911.251 243.924 914.397 242.839 917.002C241.481 920.26 240.594 922.73 238.751 926.819C236.32 932.213 233.999 936.568 231.498 942.152C229.467 946.686 228.454 949.357 226.214 953.985C225.886 954.663 225.528 955.394 225.395 955.57C224.83 956.32 224.857 955.665 224.672 955.568C224.545 955.501 224.278 955.739 224.149 955.672C224.064 955.627 224.119 955.278 224.034 955.234C223.587 954.999 226.622 948.889 228.784 944.379C230.244 941.335 231.93 937.842 233.429 934.603C236.504 927.959 238.336 923.1 241.294 916.57C242.79 913.267 244.515 909.503 245.998 906.446C248.276 901.749 250.438 897.423 252.865 892.044C256.469 884.059 257.057 882.168 259.609 876.067C261.701 871.068 266.951 859.909 269.314 855.095Z" fill="#F1C21B"/>
<path fill-rule="evenodd" clip-rule="evenodd" d="M872.804 706.835C873.415 705.591 874.707 703.049 874.775 703.084L875.05 703.229C875.289 703.354 875.712 703.072 875.949 703.197C876.026 703.237 876.283 702.987 875.712 704.331C874.736 706.628 873.304 709.403 872.435 711.174C870.788 714.53 868.002 720.349 866.304 724.2C863.456 730.659 862.61 733.549 859.486 740.516C855.04 750.426 853.846 752.185 850.19 760.065C848.832 762.991 847.415 766.137 846.329 768.742C844.971 772 844.085 774.47 842.242 778.559C839.811 783.953 837.49 788.308 834.989 793.892C832.957 798.427 831.944 801.097 829.704 805.725C829.376 806.403 829.019 807.134 828.886 807.31C828.32 808.06 828.347 807.405 828.163 807.309C828.035 807.242 827.768 807.479 827.64 807.412C827.554 807.367 827.61 807.019 827.525 806.974C827.077 806.74 830.112 800.629 832.274 796.12C833.734 793.075 835.421 789.582 836.92 786.343C839.995 779.699 841.827 774.84 844.785 768.31C846.281 765.007 848.005 761.243 849.488 758.186C851.767 753.489 853.928 749.163 856.356 743.785C859.96 735.799 860.547 733.908 863.1 727.807C865.191 722.809 870.442 711.649 872.804 706.835Z" fill="#F1C21B"/>
<path fill-rule="evenodd" clip-rule="evenodd" d="M436.984 535.359C437.891 534.394 439.784 532.44 439.839 532.498L440.064 532.735C440.258 532.94 440.735 532.824 440.928 533.028C440.991 533.094 441.3 532.949 440.406 534.023C438.877 535.857 436.789 537.983 435.499 539.355C433.054 541.956 428.882 546.491 426.26 549.544C421.862 554.665 420.302 557.112 415.508 562.616C408.687 570.447 407.091 571.691 401.552 577.875C399.496 580.17 397.325 582.654 395.611 584.742C393.467 587.353 391.978 589.385 389.156 592.613C385.432 596.871 382.085 600.18 378.246 604.593C375.128 608.177 373.466 610.354 370.125 613.952C369.635 614.479 369.104 615.046 368.932 615.165C368.197 615.675 368.394 615.062 368.244 614.904C368.14 614.794 367.824 614.924 367.719 614.814C367.649 614.74 367.793 614.428 367.724 614.356C367.359 613.971 371.844 609.249 375.081 605.736C377.265 603.364 379.783 600.647 382.056 598.104C386.719 592.888 389.732 588.924 394.254 583.774C396.54 581.17 399.165 578.208 401.375 575.833C404.772 572.183 407.959 568.845 411.675 564.6C417.192 558.298 418.244 556.71 422.268 551.823C425.564 547.819 433.478 539.089 436.984 535.359Z" fill="#F1C21B"/>
</svg>
