<?xml version="1.0" encoding="UTF-8" standalone="no"?>
<!DOCTYPE svg PUBLIC "-//W3C//DTD SVG 1.1//EN" "http://www.w3.org/Graphics/SVG/1.1/DTD/svg11.dtd">
<svg width="100%" height="100%" viewBox="0 0 1024 1024" version="1.1" xmlns="http://www.w3.org/2000/svg" xmlns:xlink="http://www.w3.org/1999/xlink" xml:space="preserve" xmlns:serif="http://www.serif.com/" style="fill-rule:evenodd;clip-rule:evenodd;stroke-linejoin:round;stroke-miterlimit:2;">
    <g id="Background">
        <path d="M282.949,234.5C283.134,216.659 282.817,184.871 303.912,152.774C323.716,122.643 349.698,120.077 354.515,119.602C357.474,119.309 372.757,80.543 431.426,65.239C567.666,29.703 654.227,106.229 668.817,119.128C704.38,150.568 715.085,139.03 723.533,142.429C735.796,147.364 708.804,168.348 705.862,170.895C703.328,173.088 705.632,173.492 712.149,183.728C747.257,238.878 720.356,288.1 722.83,292.334C724.882,295.845 733.591,310.745 730.846,342.529C730.394,347.762 730.673,348.194 735.253,350.911C752.257,360.996 756.479,387.254 751.139,412.433C736.579,481.084 705.285,476.443 704.283,479.416C702.842,483.689 698.585,512.618 698.159,515.516C697.529,519.795 749.595,525.666 760.19,577.559C763.179,592.199 764.01,592.395 776.272,600.843C817.257,629.081 808.045,662.797 810.679,664.113C841.573,679.551 884.142,684.67 931.019,758.791C957.2,800.19 975.35,876.278 979.041,909.533C982.363,939.452 990.68,966.758 963.584,976.725C957.645,978.91 957.362,978.196 241.5,978.304C63.655,978.33 63.324,978.437 56.657,975.211C36.483,965.45 40.796,942.502 43.14,924.444C69.327,722.743 148.822,693.221 205.391,668.249C208.67,666.801 204.182,657.424 207.38,646.458C217.762,610.858 245.161,607.133 250.174,570.446C255.524,531.3 306.963,520.634 324.667,514.766C326.594,514.127 322.504,499.315 321.978,493.478C320.993,482.553 322.822,479.916 312.48,476.55C279.247,465.732 268.117,403.676 271.294,382.466C274.899,358.397 283.73,354.107 292.184,349.069C293.434,348.324 291.663,318.394 293.112,307.442C294.901,293.915 284.654,294.908 282.949,234.5Z" style="fill:rgb(15,15,15);"/>
        <path d="M823.481,784.491C791.313,873.292 804.837,959.275 798.503,959.382C796.737,959.412 361.828,959.425 359.493,959.399C320.975,958.982 224.35,960.451 223.872,958.419C222.655,953.243 227.757,899.249 213.867,829.431C195.264,735.913 147.188,722.769 151.761,718.791C165.795,706.584 214.307,681.804 218.107,684.953C248.961,710.526 477.923,777.128 522.546,772.868C544.266,770.795 685.837,749.031 756.353,713.097C796.821,692.474 800.028,680.315 803.458,681.612C833.374,692.927 876.662,717.127 871.885,720.834C845.331,741.445 835.832,756.13 823.481,784.491Z" style="fill:rgb(82,82,80);"/>
        <path d="M696.96,322.501C697.242,392.515 685.77,406.121 615.501,406.943C561.713,407.571 556.908,384.186 551.382,372.558C542.094,353.016 535.945,311.164 502.406,322.207C472.571,332.03 483.966,390.705 441.549,402.652C425.183,407.262 342.434,417.21 331.252,374.572C327.367,359.76 319.665,305.564 334.85,292.891C365.241,267.53 665.364,269.849 688.299,292.723C698.274,302.671 696.642,318.564 696.96,322.501Z" style="fill:rgb(250,250,250);"/>
        <path d="M457.499,254.954C337.335,258.578 325.481,277.042 326.277,271.496C331.907,232.262 340.464,177.08 386.618,156.753C439.2,133.594 498.061,161.923 505.431,164.681C606.035,202.328 644.608,186.591 654.535,188.329C682.357,193.2 690.735,236.17 695.841,268.456C697.257,277.405 691.078,268.76 662.449,263.75C594.255,251.817 502.503,254.347 457.499,254.954Z" style="fill:rgb(250,250,250);"/>
        <path d="M174.505,959.332C166.665,959.365 92.708,959.672 76.501,959.431C74.862,959.407 58.862,959.169 59.816,947.527C67.396,855.101 93.139,800.44 98.716,788.598C114.618,754.832 134.083,732.857 137.234,734.919C177.72,761.416 189.9,803.557 198.007,852.582C204.018,888.935 204.907,954 204.557,958.522C204.48,959.511 201.187,959.598 174.505,959.332Z" style="fill:rgb(82,82,80);"/>
        <path d="M902.5,959.357C820.964,959.488 819.371,959.814 819.392,957.5C819.701,924.082 817.726,776.444 885.874,734.963C887.711,733.844 889.78,732.585 905.035,753.825C955.214,823.69 965.672,948.17 963.261,952.377C958.262,961.099 954.124,959.412 902.5,959.357Z" style="fill:rgb(82,82,80);"/>
        <path d="M633.499,426.047C648.417,424.905 648.282,425.01 649.561,424.851C684.583,420.509 694.696,405.9 694.076,410.518C689.632,443.612 689.011,517.813 635.19,553.056C586.515,584.93 646.525,491.899 581.305,460.903C553.54,447.707 540.105,449.804 544.034,447.165C552.667,441.366 553.484,423.815 546.49,421.521C536.051,418.096 535.388,428.867 534.772,430.609C533.18,435.11 519.36,439.929 513.494,440.005C489.881,440.313 479.994,437.195 483.112,421.429C493.064,371.123 498.709,357.006 500.848,351.659C506.55,337.399 516.537,335.608 522.472,352.511C544.436,415.064 549.189,426.117 633.499,426.047Z" style="fill:rgb(250,250,250);"/>
        <path d="M708.912,600.505C706.765,580.144 697.84,576.764 682.818,566.119C681.726,565.345 692.904,534.357 694.444,534.825C735.253,547.215 754.247,584.602 736.176,618.354C710.429,666.44 669.205,676.036 670.089,688.512C672.055,716.27 723.142,669.67 733.161,658.223C755.154,633.096 759.094,614.8 759.631,613.57C760.942,610.573 775.194,622.281 777.256,624.701C799.849,651.223 796.751,669.894 749.614,693.729C678.363,729.756 536.856,751.716 536.615,751.394C532.725,746.192 655.399,696.42 693.889,639.764C708.527,618.217 707,617.284 708.912,600.505Z" style="fill:rgb(83,83,81);"/>
        <path d="M366.04,636.505C364.062,611.802 364.552,611.854 362.85,603.517C362.024,599.469 366.758,605.774 366.992,606.086C370.853,611.228 416.287,660.8 478.433,671.811C596.732,692.773 659.289,600.628 660.528,601.451C660.657,601.537 658.614,648.411 658.436,652.494C658.067,660.979 544.961,724.273 534.773,729.974C521.338,737.492 516.295,743.053 513.809,741.102C459.077,698.155 408.356,678.608 373.825,652.067C365.521,645.684 366.201,644.733 366.04,636.505Z" style="fill:rgb(250,250,250);"/>
        <path d="M416.496,426.048C427.663,425.186 427.571,425.64 438.551,423.687C468.581,418.345 473.899,404.247 471.571,411.512C471.148,412.831 470.533,414.085 470.136,415.413C462.005,442.577 470.113,442.535 475.282,449.599C476.416,451.149 464.844,451.106 447.502,458.504C376.958,488.596 432.111,576.292 396.607,557.3C345.538,529.983 337.639,470.985 334.782,452.44C328.336,410.589 328.925,406.91 331.668,409.051C357.295,429.054 402.601,426.063 416.496,426.048Z" style="fill:rgb(250,250,250);"/>
        <path d="M517.5,545.952C491.816,546.028 480.159,542.621 479.941,556.499C479.808,564.984 486.443,587.77 455.439,577.68C428.547,568.928 427.794,516.279 439.702,503.686C452.904,489.725 472.052,500.032 505.384,486.22C510.954,483.912 511.184,482.532 516.659,485.175C548.951,500.765 583.443,485.47 589.694,514.444C591.332,522.039 598.402,579.841 553.501,580.031C532.321,580.12 555.012,545.317 532.501,545.592C531.301,545.607 531.39,545.619 517.5,545.952Z" style="fill:rgb(250,250,250);"/>
        <path d="M257.093,604.928C283.57,655.272 345.642,665.74 401.25,694.982C409.053,699.085 472.391,732.393 496.368,750.619C501.14,754.247 494.343,751.478 478.494,748.537C470.395,747.033 379.656,726.229 307.481,700.552C228.467,672.441 217.922,668.299 227.945,644.698C232.979,632.844 255.006,606.099 257.093,604.928Z" style="fill:rgb(83,83,81);"/>
        <path d="M355.356,653.13C343.784,647.904 273.858,622.363 269.237,578.533C265.781,545.75 329.751,531.478 330.859,534.341C335.897,547.363 335.077,547.533 340.338,560.567C340.73,561.538 341.252,562.452 341.669,563.412C343.818,568.356 327.796,568.067 312.715,580.744C293.851,596.6 323.803,629.377 354.288,650.756C355.543,651.636 355.359,651.685 355.356,653.13Z" style="fill:rgb(83,83,81);"/>
        <path d="M600.502,298.949C603.387,298.963 624.131,299.058 636.543,300.175C669.345,303.125 661.227,325.071 649.44,322.833C566.406,307.063 557.032,332.616 549.881,315.355C544.376,302.065 557.276,299.11 600.502,298.949Z" style="fill:rgb(15,15,15);"/>
        <path d="M528.499,512.957C554.296,512.391 583.147,502.657 577.786,518.588C572.673,533.788 468.278,530.618 451.647,523.168C444.235,519.847 441.366,505.715 458.445,508.76C485.95,513.666 494.017,513.483 528.499,512.957Z" style="fill:rgb(15,15,15);"/>
        <path d="M417.5,298.952C466.61,299.091 479.331,301.052 472.684,316.601C466.789,330.39 454.685,308.529 379.555,321.703C374.235,322.635 362.867,326.042 363.978,312.544C365.148,298.338 393.356,299.24 417.5,298.952Z" style="fill:rgb(15,15,15);"/>
        <path d="M712.04,427.489C713.561,412.158 714.304,399.611 709.194,393.742C706.268,390.382 708.143,388.011 712.211,373.422C712.463,372.519 714.833,364.018 720.549,365.194C751.62,371.582 722.595,455.87 709.5,456.795C707.152,456.961 708.276,455.262 712.04,427.489Z" style="fill:rgb(250,250,250);"/>
        <path d="M310.95,418.496C314.647,454.644 316.297,457.644 313.562,456.331C296.909,448.332 274.557,372.159 302.541,365.682C309.646,364.038 310.49,372.453 315.848,389.396C316.58,391.71 309.733,396.57 310.183,405.507C310.235,406.546 310.239,406.469 310.95,418.496Z" style="fill:rgb(250,250,250);"/>
        <path d="M401.951,353.499C402.173,352.496 401.985,351.431 402.207,350.428C406.038,333.123 427.464,333.561 434.181,343.734C449.374,366.743 405.613,384.837 401.951,353.499Z" style="fill:rgb(15,15,15);"/>
        <path d="M586.934,354.5C587.726,331.649 610.732,335.419 616.263,340.773C638.323,362.126 592.17,387.274 586.934,354.5Z" style="fill:rgb(15,15,15);"/>
    </g>
</svg>
