<?xml version="1.0" encoding="UTF-8" standalone="no"?>
<!DOCTYPE svg PUBLIC "-//W3C//DTD SVG 1.1//EN" "http://www.w3.org/Graphics/SVG/1.1/DTD/svg11.dtd">
<svg width="100%" height="100%" viewBox="0 0 1024 1024" version="1.1" xmlns="http://www.w3.org/2000/svg" xmlns:xlink="http://www.w3.org/1999/xlink" xml:space="preserve" xmlns:serif="http://www.serif.com/" style="fill-rule:evenodd;clip-rule:evenodd;stroke-linejoin:round;stroke-miterlimit:2;">
    <g id="Background" transform="matrix(1,0,0,1,118,4)">
        <path d="M91.04,503.215C118.286,459.612 165.012,377.6 164.763,376.473C138.767,258.594 166.904,165.469 347.545,150.872C441.17,143.307 542.515,157.91 588.187,202.84C661.16,274.629 618.144,370.767 622.405,378.543C747.037,605.963 776.907,589.189 782.694,623.455C788.367,657.039 761.474,670.337 764.834,674.226C808.315,724.534 754.965,756.334 766.469,787.512C768.344,792.594 779.71,810.812 765.395,816.219C749.518,822.217 732.146,785.156 745.986,752.689C752.576,737.231 769.279,715.449 746.165,687.854C743.209,684.326 687.092,745.702 594.945,632.169C586.362,621.595 579.421,610.674 578.184,608.729C578.364,608.372 580.043,605.046 577.397,603.804C575.855,603.08 574.561,605.302 575.779,607.603C553.016,749.966 416.254,833.687 304.184,759.993C300.411,757.512 237.734,719.431 214.224,621.565C211.965,612.16 213.516,602.199 208.057,610.196C123.526,734.009 60.203,698.244 47.689,691.176C45.396,689.881 42.521,684.095 35.817,695.695C11.362,738.014 65.531,751.864 39.321,805.407C28.871,826.756 9.413,815.46 15.356,800.443C25.717,774.264 24.085,772.822 11.943,747.313C-9.425,702.417 24.211,674.902 21.385,671.597C-20.705,622.374 16.145,606.053 54.062,556.168C56.948,552.372 70.839,534.097 88.308,507.379C95.789,510.714 97.526,500.576 95.057,500.267C94.883,500.245 95.122,500.275 94.024,502.207C92.608,504.697 91.877,502.932 91.04,503.215Z" style="fill:rgb(43,51,53);fill-opacity:1;"/>
        <path d="M226.33,420.47C227.921,406.314 231.159,406.703 256.363,397.082C347.658,362.234 508.633,377.191 557.549,409.44C558.64,410.159 559.235,410.552 560.639,425.48C560.689,426.762 560.787,426.73 561.622,441.488C562.386,468.535 562.842,468.311 562.518,495.501C562.226,503.838 561.933,512.174 561.641,520.511C560.666,534.327 551.768,660.507 498.587,681.749C470.818,692.841 508.156,631.176 461.28,605.88C437.92,593.275 422.808,592.198 425.818,589.766C427.045,588.774 441.145,582.264 440.052,565.508C440.001,564.73 429.957,538.727 430.312,565.504C430.466,577.074 419.961,568.886 411.773,573.967C393.521,585.294 391.204,585.459 370.28,572.847C362.84,568.362 356.943,574.378 356.993,565.503C357.068,552.208 368.084,554.214 371.729,531.551C372.516,526.655 381.275,472.192 365.464,469.886C358.975,468.939 368.43,513.069 350.904,543.74C328.76,582.494 365.511,589.742 360.631,591.614C332.53,602.391 304.323,605.644 301.142,642.457C298.975,667.533 303.771,696.427 276.875,675.035C225.257,633.978 218.785,507.658 226.33,420.47Z" style="fill:rgb(230,227,215);fill-opacity:1;"/>
        <path d="M321.964,681.487C321.994,678.598 322.253,653.795 324.318,645.444C328.874,627.011 370.45,624.593 386.562,628.012C400.407,630.95 400.418,624.706 425.534,627.205C465.319,631.164 467.058,640.516 464.693,680.516C462.448,718.478 412.664,725.035 393.5,724.911C328.574,724.491 322.981,688.104 321.964,681.487Z" style="fill:rgb(231,228,216);fill-opacity:1;"/>
        <path d="M444.483,451.059C441.867,451.408 422.619,456.381 426.89,441.621C431.02,427.348 508.914,406.319 531.128,436.78C546.853,458.342 538.188,464.851 532.703,461.183C509.116,445.41 507.784,443.213 444.483,451.059Z" style="fill:rgb(40,47,49);fill-opacity:1;"/>
        <path d="M315.511,448.058C286.008,446.148 280.766,442.94 256.221,460.078C244.691,468.129 240.199,451.923 259.67,432.668C285.425,407.199 352.992,430.179 358.205,439.676C367.908,457.352 341.174,450.692 315.511,448.058Z" style="fill:rgb(40,47,49);fill-opacity:1;"/>
        <path d="M491.045,485.498C488.533,499.427 459.865,511.15 456.158,480.526C455.332,473.706 429.55,493.234 435.885,476.656C444.945,452.946 513.599,460.105 513.902,480.488C513.938,482.922 511.191,485.959 506.648,484.063C497.835,480.387 492.001,473.207 491.045,485.498Z" style="fill:rgb(40,47,49);fill-opacity:1;"/>
        <path d="M311.493,499.01C297.208,496.251 295.691,494.785 294.899,480.417C294.531,473.75 263.171,494.793 273.47,476.482C287.853,450.909 357.14,462.653 350.065,482.319C346.801,491.394 329.82,469.811 329.328,483.485C329.305,484.13 329.158,488.227 327.099,491.24C321.891,498.864 312.259,498.854 311.493,499.01Z" style="fill:rgb(40,47,49);fill-opacity:1;"/>
        <path d="M392.503,644.912C436.093,643.037 437.67,641.322 439.594,645.45C448.935,665.493 348.493,666.312 345.994,648.452C344.905,640.663 349.914,642.715 392.503,644.912Z" style="fill:rgb(38,45,47);fill-opacity:1;"/>
        <path d="M408.506,673.946C415.315,674.163 416.004,672.189 421.098,676.907C439.224,693.694 367.666,698.609 363.853,684.418C360.098,670.437 377.948,675.703 408.506,673.946Z" style="fill:rgb(38,45,47);fill-opacity:1;"/>
        <path d="M560.639,425.48C565.738,420.987 559.896,411.711 564.92,416.269C567.193,418.33 563.2,424.644 563.302,427.523C563.674,438.046 564.302,439.032 561.622,441.488C560.787,426.73 560.689,426.762 560.639,425.48Z" style="fill:rgb(23,27,29);fill-opacity:1;"/>
        <path d="M91.04,503.215C91.877,502.932 92.608,504.697 94.024,502.207C95.122,500.275 94.883,500.245 95.057,500.267C97.526,500.576 95.789,510.714 88.308,507.379C89.219,505.991 90.129,504.603 91.04,503.215Z" style="fill:rgb(37,43,46);fill-opacity:0.99;"/>
        <path d="M575.779,607.603C574.561,605.302 575.855,603.08 577.397,603.804C580.043,605.046 578.364,608.372 578.184,608.729C577.382,608.353 576.581,607.978 575.779,607.603Z" style="fill:rgb(38,42,45);fill-opacity:0.92;"/>
        <path d="M569.701,520.272C570.49,517.949 571.648,517.163 572.548,519.472C572.634,519.693 573.048,520.755 569.701,520.272Z" style="fill:rgb(46,52,53);fill-opacity:1;"/>
        <path d="M222.446,409.471C222.53,409.235 223.502,406.525 223.502,406.525C229.019,403.54 222.632,409.303 222.446,409.471Z" style="fill:rgb(44,51,52);fill-opacity:1;"/>
        <path d="M565.733,535.43C565.849,535.786 566.182,536.044 566.299,536.4C566.358,536.581 567.026,538.618 564.266,537.661C562.474,537.038 564.704,536.994 565.733,535.43Z" style="fill:rgb(43,50,52);"/>
    </g>
</svg>
