<svg width="971" height="622" viewBox="0 0 971 622" fill="none" xmlns="http://www.w3.org/2000/svg">
<path fill-rule="evenodd" clip-rule="evenodd" d="M973 0H0V391.321C0.0142049 253.927 109.602 105.922 231.524 53.4319C323.045 14.0327 373.164 16.6118 462.239 22.1049C497.927 22.1049 535.258 28.8023 571.838 41.1501C602.751 40.4753 635.204 42.1743 673.777 44.2782C775.265 44.2782 887.888 84.4101 973 149.729V0ZM973 623.376C957.581 633.357 941.356 642.014 924.437 650H973V623.376ZM267.481 650C265.356 648.824 263.234 647.624 261.116 646.4C195.323 634.228 134.047 613.235 75.71 560.955C22.2752 513.065 0.0064027 453.299 0 391.374V650H267.481Z" fill="#F1C21B"/>
</svg>
